<svg width="40" height="38" viewBox="0 0 40 38" fill="none" xmlns="http://www.w3.org/2000/svg">
<path d="M18.4448 0.354051C14.3392 0.601578 10.571 1.98948 7.4104 4.42717C6.58087 5.06871 5.19556 6.39856 4.5546 7.17486C1.75911 10.5445 0.261698 14.7496 0.326825 19.037C0.422914 24.9009 3.26403 30.1642 8.16308 33.5487C9.11223 34.2047 10.9039 35.1448 11.9771 35.5464C14.8584 36.6376 17.9976 37.0112 20.9302 36.599C21.774 36.4831 22.0821 36.2857 22.0901 35.8441C22.0934 35.6651 21.8065 35.3554 21.5807 35.2976C21.4976 35.2722 20.9363 35.2798 20.3269 35.3105C18.1638 35.4263 15.8236 35.1031 13.7589 34.4028C11.4748 33.6269 9.24306 32.267 7.53021 30.6061C5.20142 28.3489 3.57564 25.5135 2.84393 22.4259C1.4802 16.6762 3.18102 10.8092 7.39217 6.73707C9.95055 4.25856 13.1719 2.7413 16.8218 2.2825C17.6594 2.17837 20.1774 2.24218 21.0284 2.38902C24.6465 3.0161 27.843 4.82943 30.0447 7.50812C31.8202 9.65969 32.9705 12.3849 33.2494 15.0942C33.3618 16.135 33.2804 17.9781 33.0904 18.9059C32.6578 21.0232 31.814 22.7748 30.2986 24.6933C28.6548 26.7765 26.5647 28.7801 24.9277 29.8367C24.1726 30.3244 23.7288 30.764 23.4685 31.2906C23.2948 31.6515 23.2691 31.7525 23.2604 32.23C23.2495 32.8267 23.3445 33.1807 23.6407 33.6338C24.7558 35.3375 27.4038 35.8037 29.4842 34.6596C31.9445 33.3016 34.2794 31.2966 35.7247 29.2932C37.1394 27.3312 37.9946 25.2813 38.4836 22.6934C38.9196 20.3851 38.8861 17.9668 38.3934 15.5223C37.835 12.7482 36.6697 10.1958 34.8914 7.87106C34.2792 7.06595 32.7618 5.49216 31.9678 4.83894C29.1508 2.51318 25.6741 1.00517 21.988 0.508173C21.0411 0.383462 19.2875 0.303743 18.4448 0.354051ZM37.057 13.1877C37.3138 13.5087 37.7045 14.9963 37.9664 16.6785C38.1218 17.6485 38.135 17.9054 38.1398 19.2845C38.139 20.9619 38.0839 21.3668 37.8338 21.6607C37.6327 21.8839 37.4707 21.9287 37.3239 21.7947C37.1831 21.6608 37.1827 21.3564 37.3383 20.3503C37.5149 19.1775 37.5179 17.7031 37.3463 16.3091C37.1903 15.0407 37.0391 14.1664 36.8825 13.5904C36.8207 13.3744 36.7884 13.1828 36.8069 13.1533C36.8559 13.0825 36.987 13.0968 37.057 13.1877ZM30.195 26.7748C30.1928 26.8941 28.7554 28.4618 27.6065 29.593C26.3543 30.8298 26.0923 31.1175 25.9009 31.4662C25.6104 32.0101 25.66 32.2379 26.1531 32.6946C26.3293 32.853 26.4989 33.0471 26.5394 33.1195C26.6666 33.3427 26.6199 33.6164 26.4311 33.8219C26.2727 33.9922 26.2247 34.0092 25.9263 34.0038C25.0791 33.9764 24.2439 32.9642 24.3903 32.1371C24.5029 31.5303 24.8385 31.1305 26.2812 29.927C26.8509 29.4539 27.7007 28.6873 28.1686 28.2302C28.6366 27.7731 29.2318 27.2169 29.4925 26.9948C29.8928 26.6499 29.9773 26.5977 30.0778 26.6532C30.1428 26.6902 30.1955 26.7449 30.195 26.7748Z" fill="#1C2A35"/>
<path d="M13.0436 4.87012C12.2808 5.13081 12.0876 5.24669 10.4668 6.39913C9.76527 6.89376 9.02362 7.62644 8.84371 7.99924C8.54606 8.60869 8.56264 9.00895 8.88272 9.13418C9.0842 9.21546 9.19878 9.15188 9.74501 8.66039C10.625 7.87053 12.6961 6.57706 13.5431 6.28805C14.3781 6.00479 14.6404 5.69318 14.4277 5.24755C14.2149 4.80192 13.6803 4.65488 13.0436 4.87012ZM13.7427 5.16343C13.813 5.23635 13.8711 5.32695 13.8702 5.37469C13.868 5.49404 13.7043 5.63433 13.5185 5.67273C13.0512 5.7657 12.8531 5.82775 12.5881 5.95425C12.4314 6.03497 12.2754 6.07988 12.2459 6.06144C12.122 5.98157 12.1983 5.72627 12.4053 5.5032C12.8193 5.06303 13.467 4.89574 13.7427 5.16343Z" fill="#1C2A35"/>
<path d="M13.6279 9.16693C13.3639 9.23972 13.0077 9.46007 12.6619 9.76419C12.5102 9.89873 12.2375 10.1206 12.0618 10.2607C11.6802 10.5641 11.3792 11.0302 11.3737 11.3346C11.3616 11.997 12.1369 12.3633 12.9244 12.0673C13.255 11.942 14.1172 11.4741 14.7935 11.0507C15.5302 10.5865 15.6603 9.99793 15.1266 9.47482C14.8099 9.16459 14.1558 9.02731 13.6279 9.16693Z" fill="#1C2A35"/>
<path d="M7.52938 9.68857C7.30781 9.72632 6.8511 10.2194 6.61021 10.6628C6.32558 11.2128 6.29963 11.654 6.54636 11.8734C6.63446 11.9526 6.78842 12.0211 6.87793 12.0228C7.17035 12.0281 7.74673 11.5192 8.32801 10.7418C8.65864 10.2882 8.57598 9.91061 8.10183 9.72288C7.92997 9.65408 7.79282 9.64562 7.52938 9.68857Z" fill="#1C2A35"/>
<path d="M10.1329 12.5954C9.5447 12.7698 8.67197 13.8165 8.3755 14.6886C8.1984 15.2346 8.1924 15.8911 8.37586 16.3064C8.55346 16.7155 8.80073 16.9051 9.21184 16.9484C9.58726 16.9851 9.76868 16.8571 10.119 16.3083C10.5675 15.6061 11.3004 14.7001 11.6029 14.4788C12.105 14.1178 12.2391 13.6367 11.9791 13.1604C11.7078 12.654 10.8292 12.3873 10.1329 12.5954ZM10.7947 12.9657C10.9421 13.0698 10.9667 13.3568 10.8335 13.4619C10.791 13.4969 10.5926 13.5769 10.4004 13.639C10.2083 13.7012 9.90108 13.8508 9.72595 13.961C9.46608 14.1354 9.39404 14.1579 9.32351 14.097C9.14134 13.9384 9.26191 13.5466 9.58949 13.2601C10.0144 12.8738 10.5061 12.7515 10.7947 12.9657Z" fill="#1C2A35"/>
<path d="M5.30394 12.8955C4.98472 13.0508 4.89824 13.2104 4.69303 13.9887C4.03246 16.4958 4.03674 17.8988 4.71876 20.7647C5.26204 23.055 6.11608 24.9987 7.37799 26.8365C9.36118 29.7141 11.4726 31.454 13.6004 31.9643C14.2542 32.1195 14.5179 32.0646 14.5233 31.7663C14.5261 31.6111 14.0373 31.244 13.1984 30.7631C11.4731 29.7885 9.72266 28.2224 8.84603 26.8632C7.38851 24.6219 6.22788 21.813 5.92438 19.7957C5.80766 18.9936 5.83348 16.5943 5.96524 15.9162C6.09004 15.2917 6.33474 14.6395 6.60526 14.2086C6.91256 13.7247 6.93568 13.4386 6.7022 13.1478C6.61453 13.0447 6.45569 12.9165 6.34904 12.8727C6.07073 12.7483 5.56913 12.757 5.30394 12.8955ZM5.84707 13.556C5.9061 13.5929 5.9585 13.6655 5.95752 13.7192C5.95622 13.7908 5.3913 14.9804 5.15692 15.394C5.06447 15.5535 4.94631 15.4857 4.89706 15.2401C4.83686 14.9405 4.91534 14.2375 5.03383 13.9591C5.22058 13.5387 5.52787 13.3831 5.84707 13.556Z" fill="#1C2A35"/>
<path d="M8.47495 17.4185C8.33053 17.4816 8.16691 17.6159 8.09931 17.7221C7.84724 18.1234 7.86119 18.9953 8.14031 20.3853C8.51836 22.2428 9.16616 23.7111 10.2275 25.0916C11.0672 26.1814 11.7422 26.8145 12.47 27.1681C12.9374 27.3975 13.1344 27.401 13.1624 27.1747C13.1766 27.0496 13.0425 26.874 12.4162 26.1881C11.9889 25.7266 11.5565 25.2113 11.4522 25.0363C11.058 24.3963 10.3587 22.8016 10.0363 21.8227C9.66898 20.6877 9.58613 19.6654 9.75773 18.4388C9.82633 17.9506 9.82134 17.8968 9.72239 17.7576C9.42544 17.3463 8.93838 17.2121 8.47495 17.4185Z" fill="#1C2A35"/>
<path d="M13.937 27.5828C13.509 27.8138 13.7458 28.2479 14.7228 29.0119C15.2702 29.4398 15.4712 29.5509 15.7099 29.5552C15.8829 29.5584 15.9552 29.5239 16.0348 29.4119C16.1514 29.2409 16.1976 29.3253 15.5437 28.5195C14.843 27.659 14.341 27.3633 13.937 27.5828Z" fill="#1C2A35"/>
<path d="M15.7391 32.2007C15.2278 32.4241 15.1709 32.9244 15.6129 33.2308C15.8311 33.378 16.3261 33.393 16.5496 33.2479C16.791 33.0971 16.9161 32.7831 16.8243 32.5785C16.6576 32.2294 16.1121 32.0404 15.7391 32.2007Z" fill="#1C2A35"/>
</svg>
