<svg width="28" height="28" viewBox="0 0 28 28" fill="none" xmlns="http://www.w3.org/2000/svg">
<g clip-path="url(#clip0_46_8)">
<path d="M11.2906 0C14.4085 0 17.2307 1.23229 19.2739 3.22474C21.3171 5.21719 22.5808 7.96956 22.5808 11.01C22.5808 13.9287 21.4162 16.5815 19.5157 18.5518C19.5503 18.5767 19.5837 18.6042 19.6153 18.6348L27.7434 26.5501C28.0839 26.8803 28.0858 27.4176 27.7467 27.7498C27.4081 28.082 26.8571 28.0834 26.5167 27.7532L18.3885 19.8379C18.3369 19.7878 18.2932 19.7331 18.257 19.675C16.3379 21.144 13.9192 22.0201 11.2904 22.0201C8.17255 22.0201 5.34983 20.7879 3.30664 18.7954C1.26368 16.803 0 14.0504 0 11.01C0 7.96956 1.26368 5.21719 3.30687 3.22474C5.35007 1.23252 8.17278 0 11.2906 0ZM18.0116 4.45589C16.2916 2.77858 13.9154 1.74111 11.2906 1.74111C8.66582 1.74111 6.28941 2.77858 4.56938 4.45589C2.84935 6.1332 1.78546 8.45036 1.78546 11.01C1.78546 13.5696 2.84935 15.8869 4.56938 17.5643C6.28918 19.2416 8.66559 20.279 11.2906 20.279C13.9154 20.279 16.2916 19.2416 18.0116 17.5643C19.7316 15.8872 20.7955 13.5698 20.7955 11.01C20.7955 8.45036 19.7316 6.1332 18.0116 4.45589Z" fill="#1C2A35"/>
</g>
<defs>
<clipPath id="clip0_46_8">
<rect width="28" height="28" fill="white"/>
</clipPath>
</defs>
</svg>
